<svg xmlns="http://www.w3.org/2000/svg" width="47.222" height="40.319" viewBox="0 0 47.222 40.319">
  <g id="Group_24135" data-name="Group 24135" transform="translate(-561.669 -599.422)">
    <path id="Path_7958" data-name="Path 7958" d="M73.174,72l-4.3,3.447c-.66.659-2.64.74-2.64-.741V72A5.249,5.249,0,0,1,61,66.763V54.234A5.249,5.249,0,0,1,66.234,49H86.5a5.249,5.249,0,0,1,5.234,5.234V66.763A5.249,5.249,0,0,1,86.5,72Z" transform="translate(501.669 551.422)" stroke="#fff" stroke-linecap="round" stroke-linejoin="round" stroke-width="2"/>
    <path id="Path_9826" data-name="Path 9826" d="M79.562,72l4.3,3.447c.66.659,2.64.74,2.64-.741V72a5.249,5.249,0,0,0,5.234-5.233V54.234A5.249,5.249,0,0,0,86.5,49H66.234A5.249,5.249,0,0,0,61,54.234V66.763A5.249,5.249,0,0,0,66.234,72Z" transform="translate(516.154 562.837)" fill="#fff" stroke="#000" stroke-linecap="round" stroke-linejoin="round" stroke-width="2"/>
  </g>
</svg>
