<svg xmlns="http://www.w3.org/2000/svg" xmlns:xlink="http://www.w3.org/1999/xlink" width="116" height="24" viewBox="0 0 116 24">
  <defs>
    <clipPath id="clip-path">
      <rect id="Rectangle_19370" data-name="Rectangle 19370" width="116" height="24" transform="translate(274 68)" fill="#fff" stroke="#707070" stroke-width="1"/>
    </clipPath>
  </defs>
  <g id="Western_Digital_Logo" data-name="Western Digital Logo" transform="translate(-274 -68)" clip-path="url(#clip-path)">
    <g id="Western_Digital_logo-2" data-name="Western_Digital_logo" transform="translate(273.826 75.179)">
      <path id="Path_3002" data-name="Path 3002" d="M34.343,2.283h2.465V4.5h1.94V6.25h-1.94v4.3A1.169,1.169,0,0,0,38,11.841a3.717,3.717,0,0,0,.687-.062V13.3a5.363,5.363,0,0,1-1.718.267c-2.021,0-2.647-1.316-2.647-2.981ZM57.217,4.5H54.732v8.8h2.485V8c0-1.048.546-1.747,1.536-1.747,1.111,0,1.556.822,1.556,1.747V13.28h2.506V7.4a2.876,2.876,0,0,0-3.092-3.166,2.611,2.611,0,0,0-2.485,1.336H57.2ZM53.9,4.236c-2.243,0-2.768,1.295-2.95,1.686h-.041V4.5H48.69v8.8h2.485V8.922A2.474,2.474,0,0,1,53.9,6.25ZM31.514,6.97l1.6-1.089c-.2-.349-1.051-1.644-3.536-1.644-1.859,0-3.395.966-3.395,2.672a2.867,2.867,0,0,0,2.384,2.754c.384.123.748.226,1.071.329.667.226,1.192.411,1.192.925,0,.473-.505.8-1.415.8a2.188,2.188,0,0,1-1.9-1.028l-1.677.946c.162.411,1.071,1.871,3.718,1.871,2.021,0,3.738-.863,3.738-2.8,0-1.6-1.131-2.364-2.445-2.775l-.97-.308c-.606-.185-1.233-.349-1.233-.925,0-.432.4-.7,1.132-.7A1.973,1.973,0,0,1,31.514,6.97ZM15.086.639l-2.263,9-2.263-9H7.448L5.125,9.909,2.8.639H.174L3.387,13.28H6.681L8.923,4.318l2.243,8.962h3.112L17.491.639Zm7.982,9.969a1.959,1.959,0,0,1-1.9,1.131,2.009,2.009,0,0,1-1.94-2.076h6.1V8.9c0-2.3-1.354-4.646-4.284-4.646-2.627,0-4.3,2.014-4.3,4.646,0,2.611,1.637,4.666,4.405,4.666a3.69,3.69,0,0,0,3.577-1.953Zm-2-4.563a1.8,1.8,0,0,1,1.8,1.871H19.229A1.836,1.836,0,0,1,21.068,6.045Zm24.187,4.563a1.959,1.959,0,0,1-1.9,1.131,2.008,2.008,0,0,1-1.94-2.076h6.1V8.9c0-2.3-1.354-4.646-4.284-4.646-2.627,0-4.3,2.014-4.3,4.646,0,2.611,1.637,4.666,4.4,4.666a3.69,3.69,0,0,0,3.577-1.953Zm-2-4.563a1.8,1.8,0,0,1,1.8,1.871H41.436A1.819,1.819,0,0,1,43.254,6.045Z" transform="translate(0 0.067)" fill="#999"/>
      <path id="Path_3003" data-name="Path 3003" d="M75.471,2.35h2.465V4.57h1.94V6.317h-1.94v4.3a1.169,1.169,0,0,0,1.192,1.295,4.11,4.11,0,0,0,.707-.062v1.521a5.363,5.363,0,0,1-1.717.267c-2.021,0-2.647-1.316-2.647-2.981ZM45.606.706h4.243c3.859,0,6.284,1.932,6.284,6.331s-2.344,6.331-6.284,6.331H45.606ZM48.273,11.25h1.414c3.233,0,3.7-2.2,3.7-4.214s-.505-4.214-3.7-4.214H48.273ZM89.858.706H92.4V13.347H89.858ZM67.146,4.57v.946h-.04A2.532,2.532,0,0,0,64.742,4.3c-2.647,0-3.617,2.2-3.617,4.44s.97,4.44,3.617,4.44a2.483,2.483,0,0,0,2.364-1.213h.04v1.007a1.851,1.851,0,0,1-1.839,1.973,2.1,2.1,0,0,1-1.879-1.069c-.222.123-1.677.987-1.677.987.182.37.909,1.953,3.637,1.953,2.849,0,4.223-1.85,4.223-4.461V4.57Zm-1.657,6.722c-1.414,0-1.677-1.4-1.677-2.549,0-1.295.364-2.549,1.677-2.549s1.677,1.254,1.677,2.549C67.146,9.873,66.863,11.292,65.489,11.292ZM80.644,5.865A3.882,3.882,0,0,1,84.039,4.3c2.142,0,4.122.966,4.122,3.474v5.571H85.736v-.884H85.7A2.964,2.964,0,0,1,80.4,10.737c0-2.014,1.637-2.96,4.162-2.96h1.091V7.571c0-.946-.707-1.5-1.819-1.5a2.142,2.142,0,0,0-1.778.884Zm2.243,4.748a1.166,1.166,0,0,0,1.253,1.192c1.071,0,1.515-.9,1.515-1.953V9.318h-.97C83.392,9.318,82.887,9.873,82.887,10.613ZM57.427,4.57h2.546v8.8H57.427ZM58.72.5a1.419,1.419,0,1,0,1.394,1.418A1.409,1.409,0,0,0,58.72.5ZM71.309,4.57h2.546v8.8H71.309ZM72.582.5a1.419,1.419,0,1,0,1.394,1.418A1.409,1.409,0,0,0,72.582.5Z" transform="translate(22.554)" fill="#999"/>
    </g>
  </g>
</svg>
