<svg xmlns="http://www.w3.org/2000/svg" width="152.078" height="17.001" viewBox="0 0 152.078 17.001">
  <g id="_1.2_Horizontal_Secondary_Wordmark_Hero_Color_RGB" data-name="1.2 Horizontal Secondary Wordmark Hero_Color_RGB" transform="translate(-56.625 -56.1)">
    <g id="Group_25540" data-name="Group 25540" transform="translate(83.939 56.1)">
      <path id="Path_23878" data-name="Path 23878" d="M222.2,61.1h2.61v2.3h2.072v1.842H224.81V69.7a1.211,1.211,0,0,0,1.266,1.343,2.138,2.138,0,0,0,.729-.077v1.612a6.073,6.073,0,0,1-1.8.269c-2.149,0-2.8-1.382-2.8-3.109V61.1" transform="translate(-185.972 -59.181)" fill="#fff"></path>
      <path id="Path_23879" data-name="Path 23879" d="M281.11,66.669H278.5v9.172h2.648V70.314c0-1.113.576-1.842,1.65-1.842a1.621,1.621,0,0,1,1.65,1.842v5.526H287.1V69.7a3.013,3.013,0,0,0-3.262-3.3,2.715,2.715,0,0,0-2.61,1.382h-.038V66.669Z" transform="translate(-220.666 -62.447)" fill="#fff"></path>
      <path id="Path_23880" data-name="Path 23880" d="M267.326,66.4c-2.379,0-2.955,1.343-3.109,1.765h-.038v-1.5H261.8v9.172h2.648V71.274a2.588,2.588,0,0,1,2.878-2.763V66.4Z" transform="translate(-210.375 -62.447)" fill="#fff"></path>
      <path id="Path_23881" data-name="Path 23881" d="M204.687,69.178l1.689-1.151c-.23-.384-1.113-1.727-3.761-1.727-1.957,0-3.607,1-3.607,2.8,0,1.65,1.19,2.456,2.533,2.878.384.115.806.23,1.151.345.729.23,1.266.422,1.266.959,0,.5-.537.844-1.5.844a2.188,2.188,0,0,1-2-1.075l-1.765,1c.154.422,1.113,1.957,3.953,1.957,2.149,0,3.953-.921,3.953-2.917,0-1.689-1.19-2.456-2.61-2.878a10.584,10.584,0,0,0-1.036-.307c-.652-.192-1.3-.384-1.3-.959,0-.461.422-.729,1.19-.729A1.962,1.962,0,0,1,204.687,69.178Z" transform="translate(-171.491 -62.386)" fill="#fff"></path>
      <path id="Path_23882" data-name="Path 23882" d="M143.611,56.7l-2.418,9.364L138.814,56.7h-3.3l-2.456,9.633L130.6,56.7h-2.8l3.416,13.163h3.492l2.379-9.326,2.379,9.326h3.3L146.183,56.7Z" transform="translate(-127.8 -56.47)" fill="#fff"></path>
      <path id="Path_23883" data-name="Path 23883" d="M182.7,71.235c0-2.418-1.42-4.836-4.528-4.836a4.841,4.841,0,0,0,.115,9.671,3.951,3.951,0,0,0,3.8-2.034L180.316,73a2.046,2.046,0,0,1-2,1.151A2.075,2.075,0,0,1,176.286,72h6.486C182.7,72.041,182.7,71.274,182.7,71.235Zm-6.447-1c.115-1.036.652-1.957,1.919-1.957a1.909,1.909,0,0,1,1.919,1.957Z" transform="translate(-156.023 -62.447)" fill="#fff"></path>
      <path id="Path_23884" data-name="Path 23884" d="M244,71.235c0-2.418-1.42-4.836-4.528-4.836a4.841,4.841,0,0,0,.115,9.671,3.951,3.951,0,0,0,3.8-2.034L241.616,73a2.046,2.046,0,0,1-2,1.151A2.075,2.075,0,0,1,237.586,72h6.486C244,72.041,244,71.274,244,71.235Zm-6.447-1c.115-1.036.652-1.957,1.919-1.957a1.909,1.909,0,0,1,1.919,1.957Z" transform="translate(-193.798 -62.447)" fill="#fff"></path>
      <path id="Path_23885" data-name="Path 23885" d="M396.4,61.1h2.61v2.3h2.072v1.842H399.01V69.7a1.211,1.211,0,0,0,1.266,1.343,2.137,2.137,0,0,0,.729-.077v1.612a6.072,6.072,0,0,1-1.8.269c-2.149,0-2.8-1.382-2.8-3.109V61.1" transform="translate(-293.32 -59.181)" fill="#fff"></path>
      <path id="Path_23886" data-name="Path 23886" d="M318.49,56.7H314V69.863h4.49c4.183,0,6.678-2,6.678-6.6C325.129,58.7,322.558,56.7,318.49,56.7ZM318.3,67.676h-1.5V58.887h1.5c3.416,0,3.914,2.3,3.914,4.413C322.251,65.373,321.752,67.676,318.3,67.676Z" transform="translate(-242.542 -56.47)" fill="#fff"></path>
      <rect id="Rectangle_22931" data-name="Rectangle 22931" width="2.725" height="13.163" transform="translate(118.354 0.23)" fill="#fff"></rect>
      <path id="Path_23887" data-name="Path 23887" d="M448.213,85.8a1.113,1.113,0,1,0,1.113,1.113A1.114,1.114,0,0,0,448.213,85.8Zm0,2.072a.921.921,0,1,1,.921-.921A.934.934,0,0,1,448.213,87.872Z" transform="translate(-324.563 -74.402)" fill="#fff"></path>
      <path id="Path_23888" data-name="Path 23888" d="M449.744,87.921a.256.256,0,0,0-.192-.269h0a.3.3,0,0,0,.23-.307c0-.269-.192-.345-.461-.345H448.9v1.3h.23v-.537h.154c.154,0,.23.077.269.307a1.357,1.357,0,0,0,.038.23h.23C449.783,88.3,449.744,88.075,449.744,87.921Zm-.422-.345h-.192v-.384h.192a.216.216,0,0,1,.23.192C449.552,87.5,449.476,87.576,449.322,87.576Z" transform="translate(-325.672 -75.142)" fill="#fff"></path>
      <path id="Path_23889" data-name="Path 23889" d="M363.271,66.669v1h-.038a2.7,2.7,0,0,0-2.495-1.266c-2.8,0-3.838,2.3-3.838,4.644s1.036,4.605,3.838,4.605a2.586,2.586,0,0,0,2.495-1.266h.038v1.075a1.915,1.915,0,0,1-1.957,2.034,2.276,2.276,0,0,1-2-1.113c-.23.115-1.765,1.036-1.765,1.036.192.384.959,2.034,3.838,2.034,3.032,0,4.49-1.919,4.49-4.644V66.669Zm-1.765,7.023c-1.5,0-1.765-1.458-1.765-2.648,0-1.343.384-2.648,1.765-2.648s1.765,1.3,1.765,2.648C363.271,72.195,362.964,73.692,361.505,73.692Z" transform="translate(-268.978 -62.447)" fill="#fff"></path>
      <path id="Path_23890" data-name="Path 23890" d="M413.938,66.4a4.224,4.224,0,0,0-3.607,1.612l1.535,1.151a2.241,2.241,0,0,1,1.88-.921c1.19,0,1.919.576,1.919,1.573v.192h-1.151c-2.686,0-4.413,1-4.413,3.07a3.143,3.143,0,0,0,5.6,1.765h.038v.921h2.571V70.046C418.313,67.4,416.2,66.4,413.938,66.4Zm1.727,5.795c0,1.075-.461,2.034-1.612,2.034A1.221,1.221,0,0,1,412.71,73c0-.768.537-1.343,1.919-1.343h1.036Z" transform="translate(-301.762 -62.447)" fill="#fff"></path>
      <rect id="Rectangle_22932" data-name="Rectangle 22932" width="2.725" height="9.172" transform="translate(83.969 4.221)" fill="#fff"></rect>
      <circle id="Ellipse_532" data-name="Ellipse 532" cx="1.458" cy="1.458" r="1.458" transform="translate(83.892)" fill="#fff"></circle>
      <rect id="Rectangle_22933" data-name="Rectangle 22933" width="2.725" height="9.172" transform="translate(98.667 4.221)" fill="#fff"></rect>
      <circle id="Ellipse_533" data-name="Ellipse 533" cx="1.458" cy="1.458" r="1.458" transform="translate(98.59)" fill="#fff"></circle>
    </g>
    <path id="Path_23891" data-name="Path 23891" d="M98.85,56.7h3.07a1.36,1.36,0,0,1,1.343,1.343v3.07a1.337,1.337,0,0,1-2.264.959L97.929,59A1.333,1.333,0,0,1,98.85,56.7Z" transform="translate(-25.195 -0.37)" fill="#5da7fb"></path>
    <path id="Path_23892" data-name="Path 23892" d="M66.9,64.107H64.713a2.326,2.326,0,0,1-2.341-2.341h0V58.043A1.36,1.36,0,0,0,61.028,56.7h-3.07A1.337,1.337,0,0,0,57,58.964l1.19,1.19L59.8,61.766l.038.038.269.269,4.337,4.3.384.384.115.115,1.612,1.612.959,1a1.328,1.328,0,0,0,2.264-.959V65.45a1.36,1.36,0,0,0-1.343-1.343Z" transform="translate(0 -0.37)" fill="#fc1859"></path>
    <path id="Path_23893" data-name="Path 23893" d="M88.5,64.107H86.313a2.326,2.326,0,0,1-2.341-2.341h0V58.043A1.36,1.36,0,0,0,82.628,56.7h-3.07a1.337,1.337,0,0,0-.959,2.264l1.19,1.19L81.4,61.766l.038.038.269.269,4.337,4.337.384.384.115.115,1.612,1.612,1,1a1.328,1.328,0,0,0,2.264-.959v-3.07a1.36,1.36,0,0,0-1.343-1.343H88.5Z" transform="translate(-13.311 -0.37)" fill="#995dff"></path>
    <g id="Group_25541" data-name="Group 25541" transform="translate(79.373 68.15)">
      <path id="Path_23894" data-name="Path 23894" d="M116.9,87.654h-.422v1.19h-.154v-1.19H115.9V87.5h1.036v.154Z" transform="translate(-115.9 -87.5)" fill="#995dff"></path>
      <path id="Path_23895" data-name="Path 23895" d="M119.1,87.6h.23l.461,1.036h0l.461-1.036h.23v1.3h-.154V87.792h0l-.5,1.113h-.077l-.461-1.113h0V88.9h-.154V87.6Z" transform="translate(-117.872 -87.562)" fill="#995dff"></path>
    </g>
  </g>
</svg>